<?xml version="1.0" encoding="UTF-8" standalone="no"?>
<svg
   id="Warstwa_1"
   enable-background="new 0 0 283.46 283.46"
   height="63.999996"
   viewBox="0 0 63.999998 63.999998"
   width="63.999996"
   version="1.1"
   xmlns:xlink="http://www.w3.org/1999/xlink"
   xmlns="http://www.w3.org/2000/svg"
   xmlns:svg="http://www.w3.org/2000/svg">
  <defs
     id="defs17" />
  <linearGradient
     id="lg1">
    <stop
       offset="0"
       stop-color="#b8332a"
       id="stop1" />
    <stop
       offset="1"
       stop-color="#9e2d27"
       id="stop2" />
  </linearGradient>
  <linearGradient
     id="SVGID_1_"
     gradientUnits="userSpaceOnUse"
     x1="37.547001"
     x2="106.993"
     xlink:href="#lg1"
     y1="84.911003"
     y2="84.911003" />
  <linearGradient
     id="SVGID_2_"
     gradientUnits="userSpaceOnUse"
     x1="106.993"
     x2="176.438"
     xlink:href="#lg1"
     y1="122.792"
     y2="122.792" />
  <linearGradient
     id="SVGID_3_"
     gradientUnits="userSpaceOnUse"
     x1="106.993"
     x2="176.438"
     xlink:href="#lg1"
     y1="47.026001"
     y2="47.026001" />
  <linearGradient
     id="SVGID_4_"
     gradientUnits="userSpaceOnUse"
     x1="176.438"
     x2="245.883"
     xlink:href="#lg1"
     y1="84.906998"
     y2="84.906998" />
  <g
     id="g17"
     transform="matrix(0.23038406,0,0,0.23038406,-0.65290878,-0.65290878)">
    <path
       d="M 2.834,84.906 141.723,160.668 280.631,84.915 141.723,9.154 Z"
       fill="#d5372d"
       id="path2" />
    <path
       d="m 141.706,274.311 0.017,-113.643 138.908,-75.762 -0.018,113.643 z"
       fill="#9f2e27"
       id="path3" />
    <path
       d="M 141.723,160.668 2.834,84.906 v 113.643 l 138.889,75.762 z"
       fill="#b7332a"
       id="path4" />
    <path
       d="m 37.547,65.975 v 18.94 c 0,10.458 15.556,18.932 34.731,18.932 19.175,0 34.714,-8.474 34.714,-18.932 v -18.94 z"
       fill="url(#SVGID_1_)"
       id="path5"
       style="fill:url(#SVGID_1_)" />
    <g
       id="g7">
      <path
         d="m 72.278,84.89 c -19.137,0 -34.706,-8.485 -34.706,-18.915 0,-10.43 15.569,-18.916 34.706,-18.916 19.128,0 34.689,8.485 34.689,18.916 0.001,10.43 -15.561,18.915 -34.689,18.915 z"
         fill="#d5372d"
         id="path6" />
      <path
         d="m 72.278,47.084 c 19.114,0 34.665,8.475 34.665,18.891 0,10.416 -15.551,18.89 -34.665,18.89 -19.123,0 -34.681,-8.474 -34.681,-18.89 0,-10.416 15.558,-18.891 34.681,-18.891 m 0,-0.049 c -19.175,0 -34.731,8.474 -34.731,18.94 0,10.466 15.556,18.94 34.731,18.94 19.175,0 34.714,-8.474 34.714,-18.94 0,-10.466 -15.538,-18.94 -34.714,-18.94 z"
         fill="#b7332a"
         id="path7" />
    </g>
    <path
       d="m 106.993,103.856 v 18.94 c 0,10.458 15.556,18.932 34.73,18.932 19.175,0 34.714,-8.474 34.714,-18.932 v -18.94 z"
       fill="url(#SVGID_2_)"
       id="path8"
       style="fill:url(#SVGID_2_)" />
    <g
       id="g10">
      <path
         d="m 141.723,122.771 c -19.137,0 -34.706,-8.485 -34.706,-18.915 0,-10.43 15.569,-18.916 34.706,-18.916 19.127,0 34.689,8.486 34.689,18.916 0,10.43 -15.561,18.915 -34.689,18.915 z"
         fill="#d5372d"
         id="path9" />
      <path
         d="m 141.723,84.965 c 19.114,0 34.665,8.475 34.665,18.891 0,10.416 -15.551,18.89 -34.665,18.89 -19.123,0 -34.681,-8.474 -34.681,-18.89 0,-10.417 15.558,-18.891 34.681,-18.891 m 0,-0.05 c -19.175,0 -34.73,8.475 -34.73,18.941 0,10.466 15.556,18.94 34.73,18.94 19.175,0 34.714,-8.474 34.714,-18.94 0,-10.466 -15.539,-18.941 -34.714,-18.941 z"
         fill="#b7332a"
         id="path10" />
    </g>
    <path
       d="m 106.993,28.086 v 18.94 c 0,10.466 15.556,18.94 34.73,18.94 19.175,0 34.714,-8.474 34.714,-18.94 v -18.94 z"
       fill="url(#SVGID_3_)"
       id="path11"
       style="fill:url(#SVGID_3_)" />
    <g
       id="g13">
      <path
         d="m 141.723,47.01 c -19.137,0 -34.706,-8.489 -34.706,-18.924 0,-10.425 15.569,-18.907 34.706,-18.907 19.127,0 34.689,8.481 34.689,18.907 0,10.435 -15.561,18.924 -34.689,18.924 z"
         fill="#d5372d"
         id="path12" />
      <path
         d="m 141.723,9.204 c 19.114,0 34.665,8.471 34.665,18.882 0,10.421 -15.551,18.899 -34.665,18.899 -19.123,0 -34.681,-8.478 -34.681,-18.899 0,-10.411 15.558,-18.882 34.681,-18.882 m 0,-0.05 c -19.175,0 -34.73,8.474 -34.73,18.932 0,10.466 15.556,18.949 34.73,18.949 19.175,0 34.714,-8.482 34.714,-18.949 C 176.438,17.628 160.898,9.154 141.723,9.154 Z"
         fill="#b7332a"
         id="path13" />
    </g>
    <path
       d="m 176.438,65.966 v 18.94 c 0,10.467 15.556,18.941 34.73,18.941 19.174,0 34.715,-8.474 34.715,-18.941 v -18.94 z"
       fill="url(#SVGID_4_)"
       id="path14"
       style="fill:url(#SVGID_4_)" />
    <g
       id="g16">
      <path
         d="m 211.168,84.89 c -19.137,0 -34.705,-8.489 -34.705,-18.924 0,-10.425 15.568,-18.907 34.705,-18.907 19.128,0 34.689,8.481 34.689,18.907 0,10.435 -15.561,18.924 -34.689,18.924 z"
         fill="#d5372d"
         id="path15" />
      <path
         d="m 211.168,47.084 c 19.114,0 34.665,8.47 34.665,18.882 0,10.421 -15.551,18.899 -34.665,18.899 -19.123,0 -34.681,-8.478 -34.681,-18.899 0,-10.411 15.558,-18.882 34.681,-18.882 m 0,-0.049 c -19.175,0 -34.73,8.474 -34.73,18.932 0,10.466 15.556,18.949 34.73,18.949 19.174,0 34.715,-8.482 34.715,-18.949 0,-10.458 -15.54,-18.932 -34.715,-18.932 z"
         fill="#b7332a"
         id="path16" />
    </g>
  </g>
</svg>
