<?xml version="1.0" encoding="UTF-8" standalone="no"?>
<svg
   id="Layer_1"
   height="64"
   viewBox="0 0 6 5.9999999"
   width="64"
   data-name="Layer 1"
   version="1.1"
   sodipodi:docname="gamepad.svg"
   inkscape:export-filename="gamepad.svg"
   inkscape:export-xdpi="96"
   inkscape:export-ydpi="96"
   inkscape:version="1.3.2 (091e20e, 2023-11-25, custom)"
   xmlns:inkscape="http://www.inkscape.org/namespaces/inkscape"
   xmlns:sodipodi="http://sodipodi.sourceforge.net/DTD/sodipodi-0.dtd"
   xmlns="http://www.w3.org/2000/svg"
   xmlns:svg="http://www.w3.org/2000/svg">
  <defs
     id="defs8" />
  <sodipodi:namedview
     id="namedview8"
     pagecolor="#ffffff"
     bordercolor="#000000"
     borderopacity="0.25"
     inkscape:showpageshadow="2"
     inkscape:pageopacity="0.0"
     inkscape:pagecheckerboard="0"
     inkscape:deskcolor="#d1d1d1"
     inkscape:zoom="4.9609375"
     inkscape:cx="47.672441"
     inkscape:cy="27.514961"
     inkscape:window-width="1920"
     inkscape:window-height="1094"
     inkscape:window-x="-11"
     inkscape:window-y="-11"
     inkscape:window-maximized="1"
     inkscape:current-layer="Layer_1" />
  <path
     d="m 5.2581355,5.0006244 c -0.4066303,0 -0.8955369,-0.403129 -1.3519332,-1.12536 H 2.0938717 c -0.5297947,0.838518 -1.10335351,1.247024 -1.54086868,1.0941 A 0.68772033,0.68772033 0 0 1 0.16825476,4.5872424 c -0.27696373,-0.580936 -0.20669122,-1.7191761 0.17168,-2.7680121 A 1.2565276,1.2565276 0 0 1 2.2709284,1.2494228 h 1.4582172 a 1.2565276,1.2565276 0 0 1 1.9309936,0.5698075 c 0.3781212,1.048836 0.4486438,2.1870761 0.17168,2.7680121 a 0.68772033,0.68772033 0 0 1 -0.3847482,0.382122 0.56955747,0.56955747 0 0 1 -0.1889355,0.03126 z"
     fill="#34495e"
     id="path1"
     style="stroke-width:0.12504" />
  <g
     fill="#2c3e50"
     id="g4"
     transform="matrix(0.12504006,0,0,0.12504006,-9.2443839e-4,-9.7780692e-4)">
    <path
       d="M 44.794,36.735 A 4.854,4.854 0 0 1 43.188,37 C 39.733,37 35.579,33.575 31.7,27.435 H 16.3 c -4.5,7.125 -9.376,10.6 -13.094,9.3 A 5.249,5.249 0 0 1 0.639,34.7 a 11.421,11.421 0 0 0 0.714,2 5.5,5.5 0 0 0 3.077,3.05 c 3.5,1.223 8.086,-2.044 12.323,-8.75 h 14.494 c 3.65,5.778 7.56,9 10.812,9 a 4.555,4.555 0 0 0 1.511,-0.252 5.5,5.5 0 0 0 3.077,-3.056 11.421,11.421 0 0 0 0.714,-2 5.249,5.249 0 0 1 -2.567,2.043 z"
       id="path2" />
    <path
       d="m 26,25 h -4 a 1,1 0 0 1 0,-2 h 4 a 1,1 0 0 1 0,2 z"
       id="path3" />
    <circle
       cx="36"
       cy="19"
       r="7.5"
       id="circle3" />
    <circle
       cx="12"
       cy="19"
       r="7"
       id="circle4" />
  </g>
  <circle
     cx="4.5005174"
     cy="1.9371427"
     fill="#f1c40f"
     id="circle5"
     style="stroke-width:0.12504"
     r="0.18756008" />
  <circle
     cx="4.5005174"
     cy="2.8124232"
     fill="#3498db"
     id="circle6"
     style="stroke-width:0.12504"
     r="0.18756008" />
  <circle
     cx="4.9381576"
     cy="2.374783"
     fill="#2ecc71"
     id="circle7"
     style="stroke-width:0.12504"
     r="0.18756008" />
  <circle
     cx="4.0628772"
     cy="2.374783"
     fill="#e74c3c"
     id="circle8"
     style="stroke-width:0.12504"
     r="0.18756008" />
  <path
     d="M 1.9371965,2.1872232 H 1.6871164 V 1.9371431 a 0.1875601,0.1875601 0 0 0 -0.3751202,0 V 2.1872232 H 1.0619161 a 0.1875601,0.1875601 0 0 0 0,0.3751202 h 0.2500801 v 0.2500801 a 0.1875601,0.1875601 0 0 0 0.3751202,0 V 2.5623434 h 0.2500801 a 0.1875601,0.1875601 0 0 0 0,-0.3751202 z"
     fill="#ecf0f1"
     id="path8"
     style="stroke-width:0.12504" />
</svg>
