<?xml version="1.0" encoding="UTF-8" standalone="no"?>
<!-- Created with Inkscape (http://www.inkscape.org/) -->

<svg
   version="1.1"
   id="svg3660"
   xml:space="preserve"
   width="682.66669"
   height="682.66669"
   viewBox="0 0 682.66669 682.66669"
   xmlns="http://www.w3.org/2000/svg"
   xmlns:svg="http://www.w3.org/2000/svg"><defs
     id="defs3664"><clipPath
       clipPathUnits="userSpaceOnUse"
       id="clipPath3674"><path
         d="M 0,512 H 512 V 0 H 0 Z"
         id="path3672" /></clipPath></defs><g
     id="g3666"
     transform="matrix(1.3333333,0,0,-1.3333333,0,682.66667)"><g
       id="g3668"><g
         id="g3670"
         clip-path="url(#clipPath3674)"><g
           id="g3676"
           transform="translate(112.6514,23.5986)"><path
             d="M 0,0 C -5.726,-5.725 -13.238,-8.591 -20.743,-8.599 -28.249,-8.591 -35.762,-5.725 -41.486,0 l -47.575,47.573 c -11.45,11.45 -11.458,30.03 0,41.487 5.725,5.725 13.238,8.591 20.751,8.591 7.505,-0.007 15.011,-2.866 20.736,-8.591 L 0,41.486 C 11.458,30.029 11.458,11.458 0,0 Z"
             style="fill:none;stroke:#000000;stroke-width:30;stroke-linecap:round;stroke-linejoin:round;stroke-miterlimit:10;stroke-dasharray:none;stroke-opacity:1"
             id="path3678" /></g><g
           id="g3680"
           transform="translate(476.9727,379.9346)"><path
             d="m 0,0 c -1.373,-1.373 -2.821,-2.716 -4.337,-3.99 l -361.116,-309.728 -45.303,45.303 107.367,125.183 202.358,235.934 c 25.91,30.708 72.549,32.677 100.964,4.262 C 26.937,69.961 26.491,26.49 0,0 Z"
             style="fill:none;stroke:#000000;stroke-width:30;stroke-linecap:round;stroke-linejoin:round;stroke-miterlimit:10;stroke-dasharray:none;stroke-opacity:1"
             id="path3682" /></g><g
           id="g3684"
           transform="translate(236.7119,173.5898)"><path
             d="M 0,0 -63.128,63.112"
             style="fill:none;stroke:#000000;stroke-width:30;stroke-linecap:round;stroke-linejoin:round;stroke-miterlimit:10;stroke-dasharray:none;stroke-opacity:1"
             id="path3686" /></g><g
           id="g3688"
           transform="translate(497,99.1025)"><path
             d="m 0,0 c 0,-27.14 -12.85,-51.27 -32.8,-66.629 -0.4,-0.32 -0.8,-0.62 -1.2,-0.92 -13.99,-10.399 -31.33,-16.55 -50.1,-16.55 -15.32,0 -29.68,4.1 -42.05,11.25 -2.789,1.61 -5.47,3.38 -8.05,5.29 -0.41,0.3 -0.81,0.61 -1.21,0.92 -19.94,15.36 -32.8,39.499 -32.8,66.639 0,27.149 12.85,51.279 32.8,66.639 0.4,0.32 0.8,0.62 1.2,0.92 2.58,1.92 5.271,3.68 8.06,5.29 12.37,7.16 26.73,11.259 42.05,11.259 18.77,0 36.11,-6.149 50.1,-16.549 0.4,-0.3 0.8,-0.6 1.2,-0.92 C -12.85,51.279 0,27.149 0,0 Z"
             style="fill:none;stroke:#000000;stroke-width:30;stroke-linecap:round;stroke-linejoin:round;stroke-miterlimit:10;stroke-dasharray:none;stroke-opacity:1"
             id="path3690" /></g><g
           id="g3692"
           transform="translate(386.3496,99.1123)"><path
             d="m 0,0 c 0,-25.47 -9.33,-48.759 -24.76,-66.648 -19.939,15.359 -32.8,39.499 -32.8,66.638 0,27.15 12.85,51.28 32.8,66.639 C -9.33,48.75 0,25.47 0,0 Z"
             style="fill:none;stroke:#000000;stroke-width:30;stroke-linecap:round;stroke-linejoin:round;stroke-miterlimit:10;stroke-dasharray:none;stroke-opacity:1"
             id="path3694" /></g><g
           id="g3696"
           transform="translate(497,99.1025)"><path
             d="m 0,0 c 0,-27.14 -12.85,-51.27 -32.8,-66.629 -15.43,17.89 -24.75,41.18 -24.75,66.639 0,25.469 9.33,48.75 24.75,66.629 C -12.85,51.279 0,27.149 0,0 Z"
             style="fill:none;stroke:#000000;stroke-width:30;stroke-linecap:round;stroke-linejoin:round;stroke-miterlimit:10;stroke-dasharray:none;stroke-opacity:1"
             id="path3698" /></g></g></g></g></svg>
