<?xml version="1.0" encoding="UTF-8" standalone="no"?>
<!-- Generator: Adobe Illustrator 19.0.0, SVG Export Plug-In . SVG Version: 6.00 Build 0)  -->

<svg
   version="1.1"
   id="Capa_1"
   x="0px"
   y="0px"
   viewBox="0 0 1024 1024"
   xml:space="preserve"
   sodipodi:docname="specperk.svg"
   inkscape:version="1.3.2 (091e20e, 2023-11-25, custom)"
   width="1024"
   height="1024"
   inkscape:export-filename="s_chr.png"
   inkscape:export-xdpi="192"
   inkscape:export-ydpi="192"
   xmlns:inkscape="http://www.inkscape.org/namespaces/inkscape"
   xmlns:sodipodi="http://sodipodi.sourceforge.net/DTD/sodipodi-0.dtd"
   xmlns="http://www.w3.org/2000/svg"
   xmlns:svg="http://www.w3.org/2000/svg"><defs
   id="defs19"><clipPath
     clipPathUnits="userSpaceOnUse"
     id="clipPath432"><path
       d="M 0,512 H 512 V 0 H 0 Z"
       id="path430" /></clipPath><clipPath
     clipPathUnits="userSpaceOnUse"
     id="clipPath448"><path
       d="M 0,512 H 512 V 0 H 0 Z"
       id="path446" /></clipPath><clipPath
     clipPathUnits="userSpaceOnUse"
     id="clipPath209"><path
       d="M 0,512 H 512 V 0 H 0 Z"
       id="path207" /></clipPath><clipPath
     clipPathUnits="userSpaceOnUse"
     id="clipPath3566"><path
       d="M 0,512 H 512 V 0 H 0 Z"
       id="path3564" /></clipPath><clipPath
     clipPathUnits="userSpaceOnUse"
     id="clipPath1253"><path
       d="M 0,512 H 512 V 0 H 0 Z"
       id="path1251" /></clipPath><clipPath
     clipPathUnits="userSpaceOnUse"
     id="clipPath410"><path
       d="M 0,512 H 512 V 0 H 0 Z"
       id="path408" /></clipPath><clipPath
     clipPathUnits="userSpaceOnUse"
     id="clipPath656"><path
       d="M 0,512 H 512 V 0 H 0 Z"
       id="path654" /></clipPath><clipPath
     clipPathUnits="userSpaceOnUse"
     id="clipPath209-3"><path
       d="M 0,512 H 512 V 0 H 0 Z"
       id="path207-3" /></clipPath></defs><sodipodi:namedview
   id="namedview19"
   pagecolor="#252525"
   bordercolor="#000000"
   borderopacity="0.25"
   inkscape:showpageshadow="2"
   inkscape:pageopacity="0.0"
   inkscape:pagecheckerboard="false"
   inkscape:deskcolor="#d1d1d1"
   inkscape:zoom="0.61526576"
   inkscape:cx="342.12858"
   inkscape:cy="501.40934"
   inkscape:window-width="1920"
   inkscape:window-height="1017"
   inkscape:window-x="-8"
   inkscape:window-y="1078"
   inkscape:window-maximized="1"
   inkscape:current-layer="Capa_1" />

















<g
   id="g2"
   inkscape:label="perk_frame"
   style="display:inline"><path
     id="path2"
     style="fill:none;stroke:#ffffff;stroke-width:20;stroke-linecap:round;stroke-linejoin:round;stroke-opacity:1"
     d="M 1014.1001,512.1001 A 501.99997,501.99994 0 0 1 512.1001,1014.1 501.99997,501.99994 0 0 1 10.100128,512.1001 501.99997,501.99994 0 0 1 512.1001,10.100159 a 501.99997,501.99994 0 0 1 502,501.999941 z" /><path
     id="ellipse2"
     style="fill:none;stroke:#ffffff;stroke-width:10;stroke-linecap:round;stroke-linejoin:round;stroke-opacity:1"
     d="M 982.625,512 A 470.625,470.62497 0 0 1 512,982.62497 470.625,470.62497 0 0 1 41.375,512 470.625,470.62497 0 0 1 512,41.375031 470.625,470.62497 0 0 1 982.625,512 Z" /></g><g
   id="g4"
   inkscape:label="spec_frame"
   style="display:none"><path
     id="path3"
     style="display:inline;fill:none;stroke:#ffffff;stroke-width:20;stroke-linecap:round;stroke-linejoin:round;stroke-opacity:1"
     d="m 1014,512 v 502 H 512 10 V 512 10 h 502 502 z"
     sodipodi:nodetypes="ccccccccc" /><path
     id="path4"
     style="display:inline;fill:none;stroke:#ffffff;stroke-width:10;stroke-linecap:round;stroke-linejoin:round;stroke-opacity:1"
     d="M 982.625,512 V 982.625 H 512 41.375 V 512 41.375 H 512 982.625 Z"
     sodipodi:nodetypes="ccccccccc" /></g><g
   id="g3562"
   clip-path="url(#clipPath3566)"
   transform="matrix(1.6029902,0,0,-1.6029902,101.63451,922.36549)"
   style="display:none;stroke:#ffffff;stroke-opacity:1"
   inkscape:label="s_luck"><path
     d="m 0,0 c -68.969,0 -183.412,112.886 -183.412,116.531 0,0.031 0.009,0.054 0.027,0.069 -0.018,0.015 -0.027,0.038 -0.027,0.069 0,3.645 114.443,116.531 183.412,116.531 25.313,0 57.615,-15.206 57.615,-56.6 0,-20.707 -16.347,-44.822 -36.698,-60 C 41.268,101.422 57.615,77.308 57.615,56.6 57.615,15.206 25.313,0 0,0 Z"
     style="fill:none;stroke:#ffffff;stroke-width:17.0667;stroke-linecap:round;stroke-linejoin:round;stroke-miterlimit:10;stroke-dasharray:none;stroke-opacity:1"
     id="path3570"
     transform="translate(439.3848,139.3999)" /><path
     d="m 0,0 c 68.969,0 183.412,112.886 183.412,116.531 0,0.031 -0.009,0.054 -0.027,0.069 0.018,0.015 0.027,0.038 0.027,0.069 C 183.412,120.314 68.969,233.2 0,233.2 c -25.313,0 -57.615,-15.206 -57.615,-56.6 0,-20.707 16.347,-44.822 36.698,-60 C -41.268,101.422 -57.615,77.308 -57.615,56.6 -57.615,15.206 -25.313,0 0,0 Z"
     style="fill:none;stroke:#ffffff;stroke-width:17.0667;stroke-linecap:round;stroke-linejoin:round;stroke-miterlimit:10;stroke-dasharray:none;stroke-opacity:1"
     id="path3574"
     transform="translate(72.615197,139.3999)" /><path
     d="m 0,0 c 0,68.969 112.886,183.413 116.531,183.413 0.031,0 0.054,-0.009 0.069,-0.028 0.014,0.019 0.038,0.028 0.068,0.028 3.645,0 116.531,-114.444 116.531,-183.413 0,-25.313 -15.206,-57.615 -56.599,-57.615 -20.707,0 -44.823,16.348 -60,36.698 -15.178,-20.35 -39.293,-36.698 -60,-36.698 C 15.206,-57.615 0,-25.313 0,0 Z"
     style="fill:none;stroke:#ffffff;stroke-width:17.0667;stroke-linecap:round;stroke-linejoin:round;stroke-miterlimit:10;stroke-dasharray:none;stroke-opacity:1"
     id="path3578"
     transform="translate(139.4004,72.614702)" /><path
     d="m 0,0 c 0,-68.969 112.886,-183.413 116.531,-183.413 0.031,0 0.054,0.009 0.069,0.028 0.014,-0.019 0.038,-0.028 0.068,-0.028 3.645,0 116.531,114.444 116.531,183.413 0,25.313 -15.206,57.615 -56.599,57.615 -20.707,0 -44.823,-16.348 -60,-36.698 -15.178,20.35 -39.293,36.698 -60,36.698 C 15.206,57.615 0,25.313 0,0 Z"
     style="fill:none;stroke:#ffffff;stroke-width:17.0667;stroke-linecap:round;stroke-linejoin:round;stroke-miterlimit:10;stroke-dasharray:none;stroke-opacity:1"
     id="path3582"
     inkscape:label="path3582"
     transform="translate(139.4004,439.3853)" /></g><g
   id="g420"
   transform="matrix(1.6464499,0,0,-1.6464499,90.763449,933.2363)"
   style="display:none;fill:none;fill-opacity:1;stroke:#ffffff;stroke-width:16.2032;stroke-linecap:round;stroke-linejoin:round;stroke-dasharray:none;stroke-opacity:1"
   inkscape:label="s_str"><g
     id="g422"
     transform="translate(363.4111,320.9849)"
     style="fill:none;fill-opacity:1;stroke:#ffffff;stroke-width:16.2032;stroke-linecap:round;stroke-linejoin:round;stroke-dasharray:none;stroke-opacity:1"><path
       d="M 0,0 -172.706,-172.706"
       style="fill:none;fill-opacity:1;stroke:#ffffff;stroke-width:16.2032;stroke-linecap:round;stroke-linejoin:round;stroke-miterlimit:10;stroke-dasharray:none;stroke-opacity:1"
       id="path424" /></g><g
     id="g426"
     style="fill:none;fill-opacity:1;stroke:#ffffff;stroke-width:16.2032;stroke-linecap:round;stroke-linejoin:round;stroke-dasharray:none;stroke-opacity:1"><g
       id="g428"
       clip-path="url(#clipPath432)"
       style="fill:none;fill-opacity:1;stroke:#ffffff;stroke-width:16.2032;stroke-linecap:round;stroke-linejoin:round;stroke-dasharray:none;stroke-opacity:1"><g
         id="g434"
         transform="translate(105.853,63.4265)"
         style="fill:none;fill-opacity:1;stroke:#ffffff;stroke-width:16.2032;stroke-linecap:round;stroke-linejoin:round;stroke-dasharray:none;stroke-opacity:1"><path
           d="M 0,0 -42.427,-42.427 -84.853,0 -42.427,42.426"
           style="fill:none;fill-opacity:1;stroke:#ffffff;stroke-width:16.2032;stroke-linecap:round;stroke-linejoin:round;stroke-miterlimit:10;stroke-dasharray:none;stroke-opacity:1"
           id="path436" /></g></g></g><g
     id="g438"
     transform="translate(148.2793,190.7056)"
     style="fill:none;fill-opacity:1;stroke:#ffffff;stroke-width:16.2032;stroke-linecap:round;stroke-linejoin:round;stroke-dasharray:none;stroke-opacity:1"><path
       d="M 0,0 172.706,172.706"
       style="fill:none;fill-opacity:1;stroke:#ffffff;stroke-width:16.2032;stroke-linecap:round;stroke-linejoin:round;stroke-miterlimit:10;stroke-dasharray:none;stroke-opacity:1"
       id="path440" /></g><g
     id="g442"
     style="fill:none;fill-opacity:1;stroke:#ffffff;stroke-width:16.2032;stroke-linecap:round;stroke-linejoin:round;stroke-dasharray:none;stroke-opacity:1"><g
       id="g444"
       clip-path="url(#clipPath448)"
       style="fill:none;fill-opacity:1;stroke:#ffffff;stroke-width:16.2032;stroke-linecap:round;stroke-linejoin:round;stroke-dasharray:none;stroke-opacity:1"><g
         id="g450"
         transform="translate(405.8379,448.2642)"
         style="fill:none;fill-opacity:1;stroke:#ffffff;stroke-width:16.2032;stroke-linecap:round;stroke-linejoin:round;stroke-dasharray:none;stroke-opacity:1"><path
           d="M 0,0 42.426,42.426 84.853,0 42.426,-42.427"
           style="fill:none;fill-opacity:1;stroke:#ffffff;stroke-width:16.2032;stroke-linecap:round;stroke-linejoin:round;stroke-miterlimit:10;stroke-dasharray:none;stroke-opacity:1"
           id="path452" /></g><g
         id="g454"
         transform="translate(448.2642,320.9849)"
         style="fill:none;fill-opacity:1;stroke:#ffffff;stroke-width:16.2032;stroke-linecap:round;stroke-linejoin:round;stroke-dasharray:none;stroke-opacity:1"><path
           d="M 0,0 -127.279,127.279 -84.853,169.706 42.426,42.427 Z"
           style="fill:none;fill-opacity:1;stroke:#ffffff;stroke-width:16.2032;stroke-linecap:round;stroke-linejoin:round;stroke-miterlimit:10;stroke-dasharray:none;stroke-opacity:1"
           id="path456" /></g><g
         id="g458"
         transform="translate(148.2793,21)"
         style="fill:none;fill-opacity:1;stroke:#ffffff;stroke-width:16.2032;stroke-linecap:round;stroke-linejoin:round;stroke-dasharray:none;stroke-opacity:1"><path
           d="M 0,0 -127.279,127.279 -84.853,169.706 42.426,42.427 Z"
           style="fill:none;fill-opacity:1;stroke:#ffffff;stroke-width:16.2032;stroke-linecap:round;stroke-linejoin:round;stroke-miterlimit:10;stroke-dasharray:none;stroke-opacity:1"
           id="path460" /></g><g
         id="g462"
         transform="translate(448.2642,236.1321)"
         style="fill:none;fill-opacity:1;stroke:#ffffff;stroke-width:16.2032;stroke-linecap:round;stroke-linejoin:round;stroke-dasharray:none;stroke-opacity:1"><path
           d="m 0,0 -212.132,212.132 42.426,42.426 L 42.426,42.426 Z"
           style="fill:none;fill-opacity:1;stroke:#ffffff;stroke-width:16.2032;stroke-linecap:round;stroke-linejoin:round;stroke-miterlimit:10;stroke-dasharray:none;stroke-opacity:1"
           id="path464" /></g><g
         id="g466"
         transform="translate(233.1318,21)"
         style="fill:none;fill-opacity:1;stroke:#ffffff;stroke-width:16.2032;stroke-linecap:round;stroke-linejoin:round;stroke-dasharray:none;stroke-opacity:1"><path
           d="m 0,0 -212.132,212.132 42.426,42.426 L 42.427,42.427 Z"
           style="fill:none;fill-opacity:1;stroke:#ffffff;stroke-width:16.2032;stroke-linecap:round;stroke-linejoin:round;stroke-miterlimit:10;stroke-dasharray:none;stroke-opacity:1"
           id="path468" /></g></g></g></g><g
   id="g1249"
   clip-path="url(#clipPath1253)"
   transform="matrix(1.8811652,0,0,-1.8811652,28.604299,926.54245)"
   style="display:none;stroke:#ffffff;stroke-width:15.9476;stroke-dasharray:none;stroke-opacity:1"
   inkscape:label="s_int"><path
     d="m 0,0 v -36.966 l -40.771,-26.223 -40.77,26.223 V 0"
     style="fill:none;stroke:#ffffff;stroke-width:15.9476;stroke-linecap:butt;stroke-linejoin:miter;stroke-miterlimit:10;stroke-dasharray:none;stroke-opacity:1"
     id="path1273"
     transform="translate(297.7366,278.0253)" /><path
     d="M 0,0 V 75.359"
     style="fill:none;stroke:#ffffff;stroke-width:15.9476;stroke-linecap:butt;stroke-linejoin:miter;stroke-miterlimit:10;stroke-dasharray:none;stroke-opacity:1"
     id="path1269"
     inkscape:label="path1269"
     transform="translate(256.9659,139.4777)" /><path
     d="m 0,0 v -17.58 c 0,-22.077 -17.897,-39.974 -39.975,-39.974 v 0 c -22.077,0 -39.974,17.897 -39.974,39.974 V 0"
     style="fill:none;stroke:#ffffff;stroke-width:15.9476;stroke-linecap:butt;stroke-linejoin:miter;stroke-miterlimit:10;stroke-dasharray:none;stroke-opacity:1"
     id="path1265"
     transform="translate(296.9406,72.627602)" /><path
     d="M 0,0 H 141.105"
     style="fill:none;stroke:#ffffff;stroke-width:15.9476;stroke-linecap:butt;stroke-linejoin:miter;stroke-miterlimit:10;stroke-dasharray:none;stroke-opacity:1"
     id="path1261"
     transform="translate(186.4132,139.4777)" /><path
     d="M 0,0 C 0,75.557 -61.517,136.746 -137.198,136.213 -211.251,135.691 -271.764,75.3 -272.427,1.248 c -0.358,-39.962 16.494,-75.993 43.593,-101.132 13.966,-12.956 22.065,-31.027 22.065,-50.078 v -66.85 h 141.105 v 67.034 c 0,18.847 7.892,36.827 21.749,49.602 C -16.914,-75.286 0,-39.618 0,0 Z"
     style="fill:none;stroke:#ffffff;stroke-width:15.9476;stroke-linecap:butt;stroke-linejoin:miter;stroke-miterlimit:10;stroke-dasharray:none;stroke-opacity:1"
     id="path1257"
     transform="translate(393.1824,289.4394)" /></g><g
   id="g406"
   clip-path="url(#clipPath410)"
   transform="matrix(1.6354429,0,0,-1.6354429,93.326945,930.67338)"
   style="display:none;stroke:#ffffff;stroke-width:18.3437;stroke-dasharray:none;stroke-opacity:1"
   inkscape:label="s_per"><path
     d="m 0,0 c 0,-66.55 -53.95,-120.5 -120.5,-120.5 -66.55,0 -120.5,53.95 -120.5,120.5 0,66.55 53.95,120.5 120.5,120.5 C -53.95,120.5 0,66.55 0,0 Z"
     style="fill:none;stroke:#ffffff;stroke-width:18.3437;stroke-linecap:round;stroke-linejoin:round;stroke-miterlimit:10;stroke-dasharray:none;stroke-opacity:1"
     id="path414"
     transform="translate(376.5,256)" /><path
     d="M 0,0 C 0,0 -105.683,-120.5 -236.049,-120.5 -366.415,-120.5 -472.098,0 -472.098,0 c 0,0 105.683,120.5 236.049,120.5 C -105.683,120.5 0,0 0,0 Z"
     style="fill:none;stroke:#ffffff;stroke-width:18.3437;stroke-linecap:round;stroke-linejoin:round;stroke-miterlimit:10;stroke-dasharray:none;stroke-opacity:1"
     id="path418"
     transform="translate(492.0488,256)" /><path
     d="m 0,0 c 0,-24.957 -20.231,-45.188 -45.188,-45.188 -24.956,0 -45.187,20.231 -45.187,45.188 0,24.957 20.231,45.188 45.187,45.188 C -20.231,45.188 0,24.957 0,0 Z"
     style="fill:none;stroke:#ffffff;stroke-width:18.3437;stroke-linecap:round;stroke-linejoin:round;stroke-miterlimit:10;stroke-dasharray:none;stroke-opacity:1"
     id="path422"
     transform="translate(301.1875,256)" /></g><g
   id="g5"
   transform="matrix(1.6031606,0,0,1.6031606,101.46109,99.359891)"
   style="display:none;stroke:#ffffff;stroke-width:18.713;stroke-dasharray:none;stroke-opacity:1"
   inkscape:label="s_agl">
	<polyline
   style="fill:none;stroke:#ffffff;stroke-width:18.713;stroke-miterlimit:10;stroke-dasharray:none;stroke-opacity:1"
   points="497.053,434.669 316.768,434.796 &#10;  36.585,154.644  "
   id="polyline1" />
	
		<line
   style="fill:none;stroke:#ffffff;stroke-width:18.713;stroke-miterlimit:10;stroke-dasharray:none;stroke-opacity:1"
   x1="346.88699"
   y1="234.619"
   x2="280.328"
   y2="234.619"
   id="line1" />
	
		<line
   style="fill:none;stroke:#ffffff;stroke-width:18.713;stroke-miterlimit:10;stroke-dasharray:none;stroke-opacity:1"
   x1="359.104"
   y1="295.444"
   x2="292.31601"
   y2="295.444"
   id="line2" />
	<path
   style="fill:none;stroke:#ffffff;stroke-width:18.713;stroke-miterlimit:10;stroke-dasharray:none;stroke-opacity:1"
   d="m 367.642,337.952 h 38.468 c 50.227,0 90.943,40.717 90.943,90.943 v 14.535 c 0,29.645 -24.032,53.676 -53.676,53.676 H 291.558 L 30.776,236.354 c -20.961,-20.959 -20.961,-54.942 0,-75.901 L 170.031,21.212 200.499,51.677 v 0 c -1.238,28.644 9.6,56.493 29.875,76.766 l 5.68,5.679 c 18.599,18.597 48.752,18.597 67.351,0 v 0 l 29.152,29.149 z"
   id="path2-0" />
	
	
		
	
		
</g><g
   id="g648"
   transform="matrix(2.1392319,0,0,-2.1392319,94.84978,1197.373)"
   style="display:none;stroke:#ffffff;stroke-width:12.4269;stroke-dasharray:none;stroke-opacity:1"
   inkscape:label="s_chr"><path
     d="M 0,0 H 210"
     style="fill:none;stroke:#ffffff;stroke-width:12.4269;stroke-linecap:round;stroke-linejoin:round;stroke-miterlimit:10;stroke-dasharray:none;stroke-opacity:1"
     id="path668"
     transform="translate(90.000002,407)" /><path
     d="M 0,0 H 210"
     style="fill:none;stroke:#ffffff;stroke-width:12.4269;stroke-linecap:round;stroke-linejoin:round;stroke-miterlimit:10;stroke-dasharray:none;stroke-opacity:1"
     id="path672"
     transform="translate(90.000002,347)" /><path
     d="M 0,0 H 210"
     style="fill:none;stroke:#ffffff;stroke-width:12.4269;stroke-linecap:round;stroke-linejoin:round;stroke-miterlimit:10;stroke-dasharray:none;stroke-opacity:1"
     id="path676"
     transform="translate(90.000002,287)" /><path
     d="M 0,0 -90,-53.235 V 0 h -60 V 300 H 210 V 0 Z"
     style="fill:none;stroke:#ffffff;stroke-width:12.4269;stroke-linecap:round;stroke-linejoin:round;stroke-miterlimit:10;stroke-dasharray:none;stroke-opacity:1"
     id="path660"
     transform="translate(165,197)" /></g><g
   id="g6"
   inkscape:label="s_end"
   transform="matrix(1.1718761,0,0,1.1718761,-88.000563,-90.717461)"
   style="display:none"><path
     d="M 812.72532,481.42333 C 818.204,469.406 822.247,457.636 824.92033,445.976 c 2.67333,-11.66 3.977,-23.21 3.977,-34.78733 0,-12.78017 -1.29969,-25.2625 -3.77383,-37.32177 -2.47414,-12.05927 -6.12274,-23.69547 -10.82056,-34.78338 -4.69782,-11.08791 -10.44487,-21.62752 -17.11591,-31.4936 -6.67104,-9.86608 -14.26607,-19.05863 -22.65986,-27.45242 -8.39379,-8.39379 -17.58634,-15.98882 -27.45242,-22.65986 -9.86608,-6.67104 -20.40569,-12.41809 -31.4936,-17.11591 -11.08791,-4.69783 -22.72411,-8.34642 -34.78338,-10.82056 -12.05927,-2.47415 -24.54161,-3.77383 -37.32178,-3.77383 -12.52199,0 -24.83524,1.22925 -36.80274,3.61998 -11.9675,2.39073 -23.58925,5.94293 -34.72825,10.58885 -11.139,4.64592 -21.79525,10.38554 -31.83175,17.1511 C 530.07675,263.89284 520.66,271.68433 512,280.434 c -8.66033,-8.74933 -18.07733,-16.54066 -28.11401,-23.30616 -10.03669,-6.7655 -20.69307,-12.50517 -31.83215,-17.15117 -11.13908,-4.646 -22.76087,-8.19833 -34.72839,-10.58917 -11.96752,-2.39083 -24.28077,-3.62016 -36.80278,-3.62016 -12.78016,0 -25.2625,1.29969 -37.32176,3.77383 -12.05927,2.47415 -23.69547,6.12275 -34.78338,10.82057 -11.0879,4.69782 -21.62751,10.44486 -31.4936,17.1159 -9.86608,6.67104 -19.05863,14.26607 -27.45242,22.65986 -8.39379,8.39379 -15.98883,17.58635 -22.65986,27.45243 -6.67104,9.86608 -12.41809,20.40569 -17.11591,31.49359 -4.69782,11.08791 -8.34642,22.72411 -10.82057,34.78338 -2.47414,12.05927 -3.77383,24.5416 -3.77383,37.32177 0,11.578 1.30367,23.12799 3.977,34.78783 2.67334,11.65983 6.71634,23.4295 12.195,35.44683 l 11.43867,20 11.43866,20 c 6.072,8.902 12.887,17.99867 20.46917,27.33766 7.58216,9.339 15.9315,18.92034 25.07216,28.79167 13.03584,14.07833 26.44252,28.08521 39.92367,41.81852 13.48114,13.7333 27.03674,27.19304 40.37039,40.1771 13.33366,12.98406 26.44538,25.49245 39.03875,37.32305 12.59337,11.8306 24.6684,22.98341 35.92869,33.25633 11.26029,10.27292 21.70584,19.66594 31.04026,27.97695 9.33441,8.31102 17.55769,15.54003 24.37343,21.48492 9.27144,8.08683 17.54063,15.18593 21.63281,18.64313 4.0553,-3.42634 12.31082,-10.51294 21.63769,-18.64856 6.81709,-5.9464 15.04186,-13.17708 24.37769,-21.48968 9.33584,-8.3126 19.78275,-17.70713 31.04412,-27.98126 11.26138,-10.27413 23.33722,-21.42785 35.93093,-33.25882 12.59371,-11.83098 25.70529,-24.33922 39.03813,-37.32237 13.33284,-12.98315 26.88695,-26.44123 40.36572,-40.17189 13.47877,-13.73067 26.88221,-27.73392 39.91371,-41.80742 9.14,-9.87133 17.489,-19.45267 25.071,-28.79167 7.582,-9.33899 14.397,-18.43566 20.469,-27.33766 l 11.43867,-20 z"
     style="display:inline;fill:none;fill-opacity:1;fill-rule:nonzero;stroke:#ffffff;stroke-width:30;stroke-dasharray:none;stroke-opacity:1"
     id="path213"
     clip-path="url(#clipPath3)"
     sodipodi:nodetypes="cssssssssssssscssssssssssssscccscsssssscsssssscsccc" /><path
     style="fill:none;stroke:#ffffff;stroke-width:30;stroke-linecap:butt;stroke-linejoin:miter;stroke-dasharray:none;stroke-opacity:1"
     d="M 170.667,501.423 H 373.778 L 409.8175,431.8365 512,600.9795 620.7515,375.81 677.332,501.423 h 176.001"
     id="path1"
     sodipodi:nodetypes="ccccccc" /></g></svg>
