<?xml version="1.0" encoding="UTF-8" standalone="no"?>
<svg
   version="1.1"
   id="Capa_1"
   x="0px"
   y="0px"
   viewBox="0 0 511.983 511.983"
   style="enable-background:new 0 0 511.983 511.983;"
   xml:space="preserve"
   width="512"
   height="512"
   sodipodi:docname="transparency.svg"
   inkscape:export-filename="transparency.png"
   inkscape:export-xdpi="96"
   inkscape:export-ydpi="96"
   inkscape:version="1.3.2 (091e20e, 2023-11-25, custom)"
   xmlns:inkscape="http://www.inkscape.org/namespaces/inkscape"
   xmlns:sodipodi="http://sodipodi.sourceforge.net/DTD/sodipodi-0.dtd"
   xmlns="http://www.w3.org/2000/svg"
   xmlns:svg="http://www.w3.org/2000/svg"><defs
   id="defs7" /><sodipodi:namedview
   id="namedview7"
   pagecolor="#ffffff"
   bordercolor="#000000"
   borderopacity="0.25"
   inkscape:showpageshadow="2"
   inkscape:pageopacity="0.0"
   inkscape:pagecheckerboard="0"
   inkscape:deskcolor="#d1d1d1"
   inkscape:zoom="0.86621094"
   inkscape:cx="189.90755"
   inkscape:cy="247.63021"
   inkscape:window-width="1920"
   inkscape:window-height="1129"
   inkscape:window-x="-8"
   inkscape:window-y="-8"
   inkscape:window-maximized="1"
   inkscape:current-layer="Capa_1" />
















<g
   id="g19"
   transform="matrix(0.93930524,0,0,0.93750068,15.537342,15.999287)"><g
     id="g7">
	
		<circle
   style="fill:none;stroke:#000000;stroke-width:20;stroke-linecap:round;stroke-linejoin:round;stroke-miterlimit:10"
   cx="307.71201"
   cy="203.77901"
   r="193.77901"
   id="circle1" />
	
		<circle
   style="fill:none;stroke:#000000;stroke-width:20;stroke-linecap:round;stroke-linejoin:round;stroke-miterlimit:10"
   cx="204.271"
   cy="308.20401"
   r="193.77901"
   id="circle2" />
	
		<polyline
   style="fill:none;stroke:#000000;stroke-width:20;stroke-linecap:round;stroke-linejoin:round;stroke-miterlimit:10"
   points="&#10;		133.156,284.543 232.062,185.636 388.095,29.604 	"
   id="polyline2" />
	
		<polyline
   style="fill:none;stroke:#000000;stroke-width:20;stroke-linecap:round;stroke-linejoin:round;stroke-miterlimit:10"
   points="&#10;		311.718,12.193 181.74,142.17 115.01,208.901 	"
   id="polyline3" />
	
		<line
   style="fill:none;stroke:#000000;stroke-width:20;stroke-linecap:round;stroke-linejoin:round;stroke-miterlimit:10"
   x1="228.10001"
   y1="377.17499"
   x2="481.30499"
   y2="123.97"
   id="line3" />
	
		<line
   style="fill:none;stroke:#000000;stroke-width:19.9993;stroke-linecap:round;stroke-linejoin:round;stroke-miterlimit:10;stroke-dasharray:none"
   x1="182.60291"
   y1="330.61572"
   x2="438.84293"
   y2="72.643059"
   id="line4" />
	
		
	
		<line
   style="fill:none;stroke:#000000;stroke-width:20;stroke-linecap:round;stroke-linejoin:round;stroke-miterlimit:10"
   x1="302.586"
   y1="396.47699"
   x2="499.29401"
   y2="199.769"
   id="line6" />
	
		
<path
   style="fill:#ffe177;fill-opacity:1;stroke:none;stroke-width:11.5445;stroke-linecap:round;stroke-linejoin:round;stroke-dasharray:none"
   d="m 168.77452,324.18701 c -8.29945,-9.62342 -15.42927,-19.75124 -21.69516,-30.81771 l -3.24279,-5.72724 71.52166,-71.5234 c 39.3369,-39.33787 71.91843,-71.5234 72.40339,-71.5234 1.10029,0 12.48786,6.56625 19.03432,10.9755 5.63878,3.79788 14.17284,10.34942 17.7445,13.62232 l 2.44798,2.24322 -75.62155,75.9053 c -45.28305,45.45295 -76.25808,76.97719 -77.20813,78.57709 l -1.58657,2.67179 z"
   id="path18"
   transform="scale(0.9999668)" /><path
   style="fill:#ffe177;fill-opacity:1;stroke:none;stroke-width:11.5445;stroke-linecap:round;stroke-linejoin:round;stroke-dasharray:none"
   d="m 216.73356,363.5693 c -10.71417,-6.20458 -21.95264,-14.16331 -29.40182,-20.82143 l -2.5758,-2.30227 2.01869,-0.95793 c 1.11134,-0.52737 9.4201,-8.41399 18.48553,-17.54636 9.05676,-9.12364 43.29333,-43.60264 76.08126,-76.62 l 59.61443,-60.03157 2.59459,2.88613 c 6.62876,7.37359 16.71484,21.89142 22.161,31.89836 l 1.96701,3.61424 -71.85639,71.85813 c -39.52102,39.52198 -71.99343,71.85814 -72.16091,71.85814 -0.16748,0 -3.28489,-1.72595 -6.92759,-3.83544 z"
   id="path19"
   transform="scale(0.9999668)" /></g><path
     style="fill:#fd8087;fill-opacity:1;stroke:none;stroke-width:17.3168;stroke-linecap:round;stroke-linejoin:round"
     d="M 191.35062,491.71423 C 173.04893,490.0229 159.33045,487.22881 144.88388,482.25017 77.769187,459.12082 30.673091,400.93524 21.557735,329.88501 c -1.02168,-7.96356 -1.037292,-35.13987 -0.02487,-43.292 6.2352,-50.20651 32.31529,-95.34994 72.521229,-125.53089 6.536246,-4.90649 16.520526,-11.4285 16.905736,-11.04329 0.11825,0.11825 -0.30543,2.25817 -0.94153,4.75536 -1.54857,6.07942 -3.81326,18.66589 -4.76364,26.47496 -0.47594,3.91068 -0.77275,12.55739 -0.77275,22.51184 0,17.02728 0.4862,23.04059 2.96365,36.65389 11.43725,62.84661 52.07766,116.94713 109.31897,145.52543 20.36542,10.16765 40.63451,16.34471 65.49928,19.96112 9.96188,1.44888 40.78998,1.44497 51.08456,-0.006 8.03749,-1.13322 22.6113,-3.99785 26.8896,-5.28543 1.53104,-0.46077 2.89564,-0.72583 3.03245,-0.58901 0.7459,0.74589 -10.87521,17.73295 -17.96577,26.26133 -5.90124,7.09789 -18.17886,19.12794 -25.52111,25.00649 -29.09215,23.29255 -62.75901,36.80378 -100.14882,40.19188 -6.04226,0.54753 -23.3427,0.69065 -28.2841,0.23401 z"
     id="path7"
     transform="scale(0.9999668)" /><path
     style="fill:#8ac9fe;fill-opacity:1;stroke:none;stroke-width:17.3168;stroke-linecap:round;stroke-linejoin:round"
     d="m 337.55651,154.26832 c -7.64245,-6.78758 -19.00644,-15.01303 -28.93943,-20.94686 l -6.54866,-3.91207 44.73152,-44.731512 44.73151,-44.731513 5.96872,3.333894 c 10.09311,5.637616 23.06573,14.722475 29.82325,20.88552 l 3.06187,2.792507 -44.97035,44.937534 -44.97034,44.93753 z"
     id="path8"
     transform="scale(0.9999668)" /><path
     style="fill:#8ac9fe;fill-opacity:1;stroke:none;stroke-width:17.3168;stroke-linecap:round;stroke-linejoin:round"
     d="m 380.07297,205.34837 c -4.68076,-8.29617 -15.63842,-23.48202 -22.58522,-31.30011 l -2.80811,-3.16032 44.89242,-44.92121 44.89243,-44.921213 2.53397,2.769237 c 6.41455,7.0101 15.32953,19.689076 21.18137,30.124356 l 3.32235,5.92457 -44.39906,44.40187 c -24.41949,24.42102 -44.56972,44.40187 -44.77829,44.40187 -0.20858,0 -1.22191,-1.49358 -2.25186,-3.31905 z"
     id="path9"
     transform="scale(0.9999668)" /><path
     style="fill:#8ac9fe;fill-opacity:1;stroke:none;stroke-width:17.3168;stroke-linecap:round;stroke-linejoin:round"
     d="m 404.72842,272.43962 c -2.08214,-12.30665 -5.67917,-25.14644 -10.64127,-37.98455 l -2.6382,-6.82566 44.09804,-44.10087 c 24.25392,-24.25548 44.27059,-43.91223 44.48148,-43.68167 0.62661,0.68506 3.28611,8.83951 5.40821,16.58245 2.20144,8.0324 4.60671,21.61918 5.46681,30.88071 l 0.56287,6.06088 -42.54795,42.57047 c -23.40137,23.41375 -42.68626,42.57046 -42.8553,42.57046 -0.16904,0 -0.76965,-2.7325 -1.33469,-6.07222 z"
     id="path10"
     transform="scale(0.9999668)" /><path
     style="fill:#8ac9fe;fill-opacity:1;stroke:none;stroke-width:17.3168;stroke-linecap:round;stroke-linejoin:round"
     d="m 400.88388,362.05512 c 0,-0.10735 0.78144,-3.59952 1.73653,-7.76036 3.20208,-13.94977 5.17255,-30.13928 5.18423,-42.5939 l 0.006,-6.35101 41.2717,-41.26868 c 35.43274,-35.43014 41.2717,-41.04377 41.2717,-39.67901 0,0.87431 -0.39268,4.2041 -0.87263,7.39954 -6.7497,44.93878 -30.93018,86.67571 -66.96661,115.58833 -7.35693,5.90258 -21.63088,15.5799 -21.63088,14.66509 z"
     id="path11"
     transform="scale(0.9999668)" /><path
     style="fill:#8ac9fe;fill-opacity:1;stroke:none;stroke-width:17.3168;stroke-linecap:round;stroke-linejoin:round"
     d="m 279.39605,118.87294 c -10.23243,-4.24747 -27.59732,-9.12368 -40.27632,-11.30993 l -7.43215,-1.28154 43.10251,-43.105379 43.10251,-43.105384 2.67715,0.234039 c 13.00458,1.136874 21.27539,2.460809 32.11571,5.140862 5.21719,1.289849 17.73012,5.166743 18.97143,5.877944 0.45798,0.262392 -87.86239,89.059618 -88.52583,89.003798 -0.15951,-0.0134 -1.84027,-0.66791 -3.73501,-1.45441 z"
     id="path12"
     transform="scale(0.9999668)" /><path
     style="fill:#8ac9fe;fill-opacity:1;stroke:none;stroke-width:17.3168;stroke-linecap:round;stroke-linejoin:round"
     d="m 151.02104,107.50846 c 8.08987,-12.969946 15.89811,-22.79006 26.74813,-33.640077 20.17572,-20.175722 43.64116,-34.876919 70.39239,-44.101133 11.04197,-3.807433 26.56311,-7.372244 36.69977,-8.429003 L 288.6133,20.9471 246.76587,62.856864 204.91843,104.76663 h -5.96304 c -12.31575,0 -29.55791,2.28383 -43.38151,5.74615 -3.85998,0.96679 -7.13178,1.75779 -7.27066,1.75779 -0.13888,0 1.08414,-2.14295 2.71782,-4.76211 z"
     id="path13"
     transform="scale(0.9999668)" /><path
     style="fill:#ffe177;fill-opacity:1;stroke:none;stroke-width:17.3168;stroke-linecap:round;stroke-linejoin:round"
     d="m 135.21332,267.75639 c -0.63777,-1.07129 -4.45849,-13.5032 -5.90183,-19.20345 -2.1644,-8.54799 -4.32616,-21.83901 -4.7035,-28.91822 l -0.32306,-6.06088 44.64446,-44.58765 44.64445,-44.58766 6.63811,0.59914 c 14.27518,1.28846 29.60823,4.46232 42.27998,8.75174 l 5.62611,1.90445 -66.30339,66.3015 c -36.46686,36.46583 -66.43746,66.07629 -66.60133,65.80103 z"
     id="path14"
     transform="scale(0.9999668)" /><path
     style="fill:#ffe177;fill-opacity:1;stroke:none;stroke-width:17.3168;stroke-linecap:round;stroke-linejoin:round"
     d="m 124.96956,183.16889 c 0,-5.53082 4.25882,-25.2221 7.90574,-36.55333 2.40609,-7.47592 3.23559,-9.23477 4.62759,-9.81231 3.95131,-1.63939 17.13041,-5.77964 22.92458,-7.20182 7.40834,-1.81837 21.26738,-4.23237 22.62417,-3.94073 0.45702,0.0982 -12.07656,13.05923 -28.63465,29.61113 -24.92811,24.91881 -29.44743,29.20019 -29.44743,27.89706 z"
     id="path15"
     transform="scale(0.9999668)" /><path
     style="fill:#ffe177;fill-opacity:1;stroke:none;stroke-width:17.3168;stroke-linecap:round;stroke-linejoin:round"
     d="m 290.6336,386.94528 c -12.51475,-1.15353 -27.69781,-4.32714 -40.11725,-8.38544 -3.49222,-1.14116 -6.57471,-2.20387 -6.84997,-2.36158 -0.49508,-0.28367 131.7317,-132.89725 132.50963,-132.89725 0.53363,0 4.60088,12.57779 6.51458,20.14605 2.00315,7.922 4.21475,21.12056 4.70305,28.06717 l 0.39201,5.57674 -45.2556,45.25835 c -24.89057,24.89209 -45.51596,45.22303 -45.8342,45.17987 -0.31823,-0.0432 -3.04624,-0.30592 -6.06225,-0.58391 z"
     id="path16"
     transform="scale(0.9999668)" /><path
     style="fill:#ffe177;fill-opacity:1;stroke:none;stroke-width:17.3168;stroke-linecap:round;stroke-linejoin:round"
     d="m 356.72604,356.43743 c 16.50639,-16.50868 30.1148,-30.01578 30.2409,-30.01578 1.0482,0 -2.48546,20.19325 -5.35355,30.59301 -3.22458,11.69242 -5.41938,17.22081 -7.19819,18.13118 -2.72084,1.39248 -15.44283,5.43632 -22.71933,7.22162 -7.43874,1.8251 -20.30263,4.08545 -23.25185,4.08564 -1.55868,10e-5 1.23621,-2.96611 28.28202,-30.01567 z"
     id="path17"
     transform="scale(0.9999668)" /></g></svg>
