<?xml version="1.0" encoding="UTF-8" standalone="no"?>
<!-- Created with Inkscape (http://www.inkscape.org/) -->

<svg
   width="1024"
   height="1024"
   viewBox="0 0 1024 1024"
   version="1.1"
   id="svg1"
   inkscape:version="1.3.2 (091e20e, 2023-11-25, custom)"
   xml:space="preserve"
   sodipodi:docname="target.svg"
   inkscape:export-filename="target.png"
   inkscape:export-xdpi="92.159973"
   inkscape:export-ydpi="92.159973"
   xmlns:inkscape="http://www.inkscape.org/namespaces/inkscape"
   xmlns:sodipodi="http://sodipodi.sourceforge.net/DTD/sodipodi-0.dtd"
   xmlns="http://www.w3.org/2000/svg"
   xmlns:svg="http://www.w3.org/2000/svg"><sodipodi:namedview
     id="namedview1"
     pagecolor="#505050"
     bordercolor="#ffffff"
     borderopacity="1"
     inkscape:showpageshadow="false"
     inkscape:pageopacity="0"
     inkscape:pagecheckerboard="1"
     inkscape:deskcolor="#d1d1d1"
     inkscape:document-units="px"
     labelstyle="default"
     inkscape:zoom="0.35355339"
     inkscape:cx="612.35447"
     inkscape:cy="561.44278"
     inkscape:window-width="1920"
     inkscape:window-height="1017"
     inkscape:window-x="-8"
     inkscape:window-y="1078"
     inkscape:window-maximized="1"
     inkscape:current-layer="svg1"
     showgrid="true"><inkscape:grid
       id="grid1"
       units="px"
       originx="0"
       originy="0"
       spacingx="1"
       spacingy="1"
       empcolor="#0099e5"
       empopacity="0.30196078"
       color="#0099e5"
       opacity="0.14901961"
       empspacing="1"
       dotted="false"
       gridanglex="30"
       gridanglez="30"
       visible="true" /></sodipodi:namedview><defs
     id="defs1" /><path
     id="path1"
     style="display:inline;fill:#cd0000;fill-opacity:1;stroke:none;stroke-width:88.083;stroke-opacity:1"
     d="M 512,12 A 500,500 0 0 0 12,512 500,500 0 0 0 512,1012 500,500 0 0 0 1012,512 500,500 0 0 0 512,12 Z m 0,168.39378 A 331.60622,331.60622 0 0 1 843.6062,512 331.60622,331.60622 0 0 1 512,843.6062 331.60622,331.60622 0 0 1 180.39378,512 331.60622,331.60622 0 0 1 512,180.39378 Z m -2.59068,155.6833 a 176.1658,176.1658 0 0 0 -176.1658,176.1658 176.1658,176.1658 0 0 0 176.1658,176.1658 176.1658,176.1658 0 0 0 176.1658,-176.1658 176.1658,176.1658 0 0 0 -176.1658,-176.1658 z" /></svg>
