<?xml version="1.0" encoding="UTF-8" standalone="no"?>
<svg
   viewBox="0 0 64 64"
   version="1.1"
   id="svg3"
   sodipodi:docname="jellyfin.svg"
   width="64"
   height="64"
   inkscape:version="1.3.2 (091e20e, 2023-11-25, custom)"
   xmlns:inkscape="http://www.inkscape.org/namespaces/inkscape"
   xmlns:sodipodi="http://sodipodi.sourceforge.net/DTD/sodipodi-0.dtd"
   xmlns:xlink="http://www.w3.org/1999/xlink"
   xmlns="http://www.w3.org/2000/svg"
   xmlns:svg="http://www.w3.org/2000/svg">
  <sodipodi:namedview
     id="namedview3"
     pagecolor="#ffffff"
     bordercolor="#000000"
     borderopacity="0.25"
     inkscape:showpageshadow="2"
     inkscape:pageopacity="0.0"
     inkscape:pagecheckerboard="0"
     inkscape:deskcolor="#d1d1d1"
     inkscape:zoom="13.229167"
     inkscape:cx="30.047244"
     inkscape:cy="42.141732"
     inkscape:window-width="1920"
     inkscape:window-height="1094"
     inkscape:window-x="-11"
     inkscape:window-y="-11"
     inkscape:window-maximized="1"
     inkscape:current-layer="svg3" />
  <defs
     id="defs2">
    <linearGradient
       id="a"
       x1="110.25"
       x2="496.14001"
       y1="213.3"
       y2="436.09"
       gradientUnits="userSpaceOnUse">
      <stop
         offset="0"
         stop-color="#aa5cc3"
         id="stop1" />
      <stop
         offset="1"
         stop-color="#00a4dc"
         id="stop2" />
    </linearGradient>
    <linearGradient
       inkscape:collect="always"
       xlink:href="#a"
       id="linearGradient6"
       gradientUnits="userSpaceOnUse"
       x1="110.25"
       y1="213.3"
       x2="496.14001"
       y2="436.09"
       gradientTransform="matrix(1.3333975,0,0,1.3333975,-9.5635897,-7.7681611)" />
    <linearGradient
       inkscape:collect="always"
       xlink:href="#a"
       id="linearGradient7"
       gradientUnits="userSpaceOnUse"
       x1="110.25"
       y1="213.3"
       x2="496.14001"
       y2="436.09"
       gradientTransform="matrix(1.3333975,0,0,1.3333975,-9.5635897,-7.7681611)" />
    <linearGradient
       inkscape:collect="always"
       xlink:href="#a"
       id="linearGradient8"
       gradientUnits="userSpaceOnUse"
       x1="110.25"
       y1="213.3"
       x2="496.14001"
       y2="436.09" />
  </defs>
  <g
     fill="url(#a)"
     transform="matrix(0.10313,0,0,0.10313,-2.9583098,-2.402929)"
     id="g3"
     style="fill:url(#linearGradient8)">
    <path
       d="m 339.01318,261.07144 c -27.25465,0 -114.9922,159.06098 -101.60489,185.91561 13.38731,26.85462 189.98247,26.56127 203.20977,0 13.22731,-26.56128 -74.35024,-185.90228 -101.60488,-185.91561 z"
       id="path2"
       style="fill:url(#linearGradient7);stroke-width:1.3334" />
    <path
       d="m 339.01318,23.3 c -82.12395,0 -346.4833357,479.26305 -306.17473,560.20028 40.308605,80.93723 572.48087,80.00385 612.34945,0 C 685.05649,503.49643 421.12379,23.3 339.01318,23.3 Z m 200.64965,489.97023 c -26.12126,52.44253 -374.79136,53.02922 -401.2193,0 -26.42794,-53.02921 146.80706,-367.05765 200.60965,-367.05765 53.80259,0 226.73091,314.6018 200.60965,367.05765 z"
       id="path3"
       style="fill:url(#linearGradient6);stroke-width:1.3334"
       inkscape:export-filename="jellyfin.svg"
       inkscape:export-xdpi="96"
       inkscape:export-ydpi="96" />
  </g>
</svg>
