<?xml version="1.0" encoding="UTF-8" standalone="no"?>
<svg
   version="1.1"
   id="Capa_1"
   x="0px"
   y="0px"
   viewBox="0 0 512 512"
   style="enable-background:new 0 0 512 512;"
   xml:space="preserve"
   sodipodi:docname="shapes.svg"
   inkscape:export-filename="shapes.png"
   inkscape:export-xdpi="96"
   inkscape:export-ydpi="96"
   inkscape:version="1.3.2 (091e20e, 2023-11-25, custom)"
   xmlns:inkscape="http://www.inkscape.org/namespaces/inkscape"
   xmlns:sodipodi="http://sodipodi.sourceforge.net/DTD/sodipodi-0.dtd"
   xmlns="http://www.w3.org/2000/svg"
   xmlns:svg="http://www.w3.org/2000/svg"><defs
   id="defs25" /><sodipodi:namedview
   id="namedview25"
   pagecolor="#ffffff"
   bordercolor="#000000"
   borderopacity="0.25"
   inkscape:showpageshadow="2"
   inkscape:pageopacity="0.0"
   inkscape:pagecheckerboard="0"
   inkscape:deskcolor="#d1d1d1"
   inkscape:zoom="1.2250073"
   inkscape:cx="201.22329"
   inkscape:cy="267.34535"
   inkscape:window-width="1920"
   inkscape:window-height="1129"
   inkscape:window-x="-8"
   inkscape:window-y="-8"
   inkscape:window-maximized="1"
   inkscape:current-layer="g10" />
<g
   id="g10"
   transform="matrix(0.9389175,0,0,0.93750084,15.999999,15.999785)">
	<g
   id="g5">
		<path
   style="display:inline;fill:#ffe177"
   d="M 331.938,297.611 H 29.506 C 17.353,297.611 7.5,287.759 7.5,275.606 v 0 c 0,-4.03 1.106,-7.982 3.199,-11.426 L 159.326,19.536 C 163.866,12.063 171.977,7.5 180.721,7.5 v 0 c 8.744,0 16.855,4.563 21.395,12.036 L 350.744,264.18 c 2.092,3.444 3.199,7.396 3.199,11.426 v 0 c 0,12.153 -9.852,22.005 -22.005,22.005 z"
   id="path1" />
		<path
   style="fill:#ffd15b"
   d="M 230.19,227.715 H 97.404 c -26.736,0 -48.488,21.752 -48.488,48.488 v 21.408 h 283.021 c 12.153,0 22.006,-9.852 22.006,-22.005 0,-4.03 -1.106,-7.982 -3.199,-11.426 L 277.065,142.903 c -23.919,22.009 -40.811,51.545 -46.875,84.812 z"
   id="path2" />
		<path
   style="fill:#fd8087"
   d="M 305.498,504.5 H 97.404 c -11.158,0 -20.203,-9.045 -20.203,-20.203 V 276.203 C 77.201,265.045 86.246,256 97.404,256 h 208.093 c 11.158,0 20.203,9.045 20.203,20.203 v 208.094 c 0.001,11.158 -9.044,20.203 -20.202,20.203 z"
   id="path3" />
		<path
   style="fill:#fe646f"
   d="m 305.498,256 h -77.772 c 0.359,64.525 40.984,119.683 97.975,141.582 V 276.203 C 325.701,265.045 316.656,256 305.498,256 Z"
   id="path4" />
		<circle
   style="fill:#8ac9fe"
   cx="380.25"
   cy="255.13901"
   r="124.25"
   id="circle4" />
		<path
   style="fill:#60b7ff"
   d="m 454.658,155.625 c 15.534,20.742 24.736,46.5 24.736,74.408 0,68.621 -55.629,124.25 -124.25,124.25 -27.908,0 -53.666,-9.202 -74.408,-24.736 22.662,30.259 58.801,49.842 99.514,49.842 68.621,0 124.25,-55.629 124.25,-124.25 0,-40.713 -19.583,-76.852 -49.842,-99.514 z"
   id="path5" /><circle
   style="fill:none;stroke:#000000;stroke-width:14.0036;stroke-linecap:round;stroke-linejoin:round;stroke-dasharray:none"
   id="path25"
   cx="381.22702"
   cy="251.62425"
   r="122.99821" />
	</g>
	<g
   id="g9"
   style="display:inline">
		<path
   style="fill:none;stroke:#000000;stroke-width:15;stroke-linecap:round;stroke-linejoin:round;stroke-miterlimit:10"
   d="M 291.20716,163.2818 202.118,19.531 c -2.273,-3.727 -5.435,-6.738 -9.122,-8.819 C 189.309,8.641 185.097,7.5 180.723,7.5 c -8.748,0 -16.86,4.566 -21.395,12.031 L 10.702,264.182 c -1.04,1.717 -1.849,3.576 -2.384,5.495 -0.535,1.919 -0.818,3.919 -0.818,5.93 0,12.152 9.849,22.001 22.001,22.001 h 47.7"
   id="path6"
   sodipodi:nodetypes="cccsccsssc" />
		
			<path
   id="line6"
   style="fill:none;stroke:#000000;stroke-width:15;stroke-linecap:round;stroke-linejoin:round;stroke-miterlimit:10"
   d="M 256.01001,256 H 210"
   sodipodi:nodetypes="cc" />
		<path
   style="fill:none;stroke:#000000;stroke-width:15;stroke-linecap:round;stroke-linejoin:round;stroke-miterlimit:10"
   d="M 153,504.5 H 97.4 c -11.16,0 -20.2,-9.04 -20.2,-20.2 V 276.2 C 77.2,265.04 86.24,256 97.4,256 H 210"
   id="path7"
   sodipodi:nodetypes="cssssc" />
		<path
   style="fill:none;stroke:#000000;stroke-width:15;stroke-linecap:round;stroke-linejoin:round;stroke-miterlimit:10"
   d="m 325.7,366.8 v 117.5 c 0,11.16 -9.04,20.2 -20.2,20.2 H 153"
   id="path8" />
		<path
   style="display:none;fill:none;stroke:#000000;stroke-width:15;stroke-linecap:round;stroke-linejoin:round;stroke-miterlimit:10"
   d="m 504.5,255.14 c 0,68.62 -55.63,124.25 -124.25,124.25 -68.62,0 -124.25,-55.63 -124.25,-124.25 0,-68.62 55.63,-124.25 124.25,-124.25 73.18374,0 124.25,49.78162 124.25,124.25 z"
   id="path9"
   sodipodi:nodetypes="sssss" />
	</g>
</g>















</svg>
