<?xml version="1.0" encoding="UTF-8"?>
<svg xmlns="http://www.w3.org/2000/svg" xmlns:xlink="http://www.w3.org/1999/xlink" version="1.1" id="Capa_1" x="0px" y="0px" viewBox="0 0 512 512" style="enable-background:new 0 0 512 512;" xml:space="preserve" width="512" height="512">
<g>
	
		<path style="fill-rule:evenodd;clip-rule:evenodd;fill:none;stroke:#000000;stroke-width:20.0001;stroke-linecap:round;stroke-linejoin:round;stroke-miterlimit:22.9256;" d="&#10;&#9;&#9;M256.281,194.549c-38.187-20.297-83.407-22.647-123.226-7.057c1.688-44.894,19.656-89.29,53.929-123.563&#10;&#9;&#9;c34.273-34.273,78.669-52.24,123.563-53.928c-15.591,39.82-13.24,85.039,7.057,123.226 M378.773,194.396&#10;&#9;&#9;c38.187,20.297,83.407,22.648,123.227,7.057c-1.688,44.894-19.656,89.29-53.929,123.563&#10;&#9;&#9;c-34.273,34.273-78.669,52.241-123.563,53.929c15.591-39.82,13.24-85.04-7.057-123.227"/>
	
		<path style="fill-rule:evenodd;clip-rule:evenodd;fill:none;stroke:#000000;stroke-width:20.0001;stroke-linecap:round;stroke-linejoin:round;stroke-miterlimit:22.9256;" d="&#10;&#9;&#9;M181.765,175.063c4.199-29.37,17.809-56.586,38.788-77.565c20.979-20.979,48.195-34.589,77.565-38.788"/>
	
		<path style="fill-rule:evenodd;clip-rule:evenodd;fill:none;stroke:#000000;stroke-width:20.0001;stroke-linecap:round;stroke-linejoin:round;stroke-miterlimit:22.9256;" d="&#10;&#9;&#9;M453.29,213.883c-4.199,29.37-17.809,56.586-38.788,77.565c-20.979,20.979-48.195,34.589-77.565,38.788"/>
	
		<rect x="254.231" y="152.275" transform="matrix(0.7071 -0.7071 0.7071 0.7071 -44.5113 281.4851)" style="fill-rule:evenodd;clip-rule:evenodd;fill:none;stroke:#000000;stroke-width:20.0001;stroke-linecap:round;stroke-linejoin:round;stroke-miterlimit:22.9256;" width="126.593" height="84.396"/>
	
		<path style="fill-rule:evenodd;clip-rule:evenodd;fill:none;stroke:#000000;stroke-width:20.0001;stroke-linecap:round;stroke-linejoin:round;stroke-miterlimit:22.9256;" d="&#10;&#9;&#9;M347.548,133.485l31.86-30.731l29.838,29.838l-30.731,31.86 M289.46,257.413L64.088,492.67c-12.04,12.569-32.45,12.309-44.758,0&#10;&#9;&#9;c-12.271-12.271-12.607-32.68,0-44.758L254.587,222.54"/>
	
		<line style="fill-rule:evenodd;clip-rule:evenodd;fill:none;stroke:#000000;stroke-width:20.0001;stroke-linecap:round;stroke-linejoin:round;stroke-miterlimit:22.9256;" x1="139.416" y1="337.683" x2="174.317" y2="372.585"/>
</g>















</svg>
