<?xml version="1.0" encoding="UTF-8" standalone="no"?>
<!-- Generator: Adobe Illustrator 19.0.0, SVG Export Plug-In . SVG Version: 6.00 Build 0)  -->

<svg
   version="1.1"
   id="Capa_1"
   x="0px"
   y="0px"
   viewBox="0 0 1024 1024"
   xml:space="preserve"
   sodipodi:docname="specperk.svg"
   inkscape:version="1.3.2 (091e20e, 2023-11-25, custom)"
   width="1024"
   height="1024"
   inkscape:export-filename="s_end.png"
   inkscape:export-xdpi="192"
   inkscape:export-ydpi="192"
   xmlns:inkscape="http://www.inkscape.org/namespaces/inkscape"
   xmlns:sodipodi="http://sodipodi.sourceforge.net/DTD/sodipodi-0.dtd"
   xmlns="http://www.w3.org/2000/svg"
   xmlns:svg="http://www.w3.org/2000/svg"><defs
   id="defs19"><clipPath
     clipPathUnits="userSpaceOnUse"
     id="clipPath432"><path
       d="M 0,512 H 512 V 0 H 0 Z"
       id="path430" /></clipPath><clipPath
     clipPathUnits="userSpaceOnUse"
     id="clipPath448"><path
       d="M 0,512 H 512 V 0 H 0 Z"
       id="path446" /></clipPath><clipPath
     clipPathUnits="userSpaceOnUse"
     id="clipPath209"><path
       d="M 0,512 H 512 V 0 H 0 Z"
       id="path207" /></clipPath><clipPath
     clipPathUnits="userSpaceOnUse"
     id="clipPath3566"><path
       d="M 0,512 H 512 V 0 H 0 Z"
       id="path3564" /></clipPath><clipPath
     clipPathUnits="userSpaceOnUse"
     id="clipPath1253"><path
       d="M 0,512 H 512 V 0 H 0 Z"
       id="path1251" /></clipPath><clipPath
     clipPathUnits="userSpaceOnUse"
     id="clipPath410"><path
       d="M 0,512 H 512 V 0 H 0 Z"
       id="path408" /></clipPath><clipPath
     clipPathUnits="userSpaceOnUse"
     id="clipPath656"><path
       d="M 0,512 H 512 V 0 H 0 Z"
       id="path654" /></clipPath><clipPath
     clipPathUnits="userSpaceOnUse"
     id="clipPath209-2"><path
       d="M 0,512 H 512 V 0 H 0 Z"
       id="path207-5" /></clipPath></defs><sodipodi:namedview
   id="namedview19"
   pagecolor="#252525"
   bordercolor="#000000"
   borderopacity="0.25"
   inkscape:showpageshadow="2"
   inkscape:pageopacity="0.0"
   inkscape:pagecheckerboard="false"
   inkscape:deskcolor="#d1d1d1"
   inkscape:zoom="0.43505859"
   inkscape:cx="506.82829"
   inkscape:cy="380.40853"
   inkscape:window-width="1920"
   inkscape:window-height="1129"
   inkscape:window-x="-8"
   inkscape:window-y="-8"
   inkscape:window-maximized="1"
   inkscape:current-layer="Capa_1" />

















<g
   id="g2"
   inkscape:label="perk_frame"
   style="display:none"
   sodipodi:insensitive="true"><path
     id="path2"
     style="fill:none;stroke:#ffffff;stroke-width:49.9999;stroke-linecap:round;stroke-linejoin:round;stroke-dasharray:none;stroke-opacity:1"
     d="m 999.00001,511.99993 a 487.00001,486.99998 0 0 1 -487.00006,486.99995 487.00001,486.99998 0 0 1 -487,-486.99995 487.00001,486.99998 0 0 1 487,-486.99998 487.00001,486.99998 0 0 1 487.00006,486.99998 z"
     inkscape:label="circle" /></g><g
   id="g4"
   inkscape:label="spec_frame"
   style="display:none"
   sodipodi:insensitive="true"><path
     id="path3"
     style="display:inline;fill:none;stroke:#ffffff;stroke-width:49.9998;stroke-linecap:round;stroke-linejoin:round;stroke-dasharray:none;stroke-opacity:1"
     d="M 999.00007,511.99999 V 999.00007 H 511.99999 24.999901 V 511.99999 24.999901 H 511.99999 999.00007 Z"
     sodipodi:nodetypes="ccccccccc"
     inkscape:label="square" /></g><g
   id="g3562"
   clip-path="url(#clipPath3566)"
   transform="matrix(1.7578125,0,0,-1.7578125,62.000003,962)"
   style="display:none;stroke:#ffffff;stroke-width:28.4444;stroke-dasharray:none;stroke-opacity:1"
   inkscape:label="s_luck"><path
     d="m 0,0 c -68.969,0 -183.412,112.886 -183.412,116.531 0,0.031 0.009,0.054 0.027,0.069 -0.018,0.015 -0.027,0.038 -0.027,0.069 0,3.645 114.443,116.531 183.412,116.531 25.313,0 57.615,-15.206 57.615,-56.6 0,-20.707 -16.347,-44.822 -36.698,-60 C 41.268,101.422 57.615,77.308 57.615,56.6 57.615,15.206 25.313,0 0,0 Z"
     style="fill:none;stroke:#ffffff;stroke-width:28.4444;stroke-linecap:round;stroke-linejoin:round;stroke-miterlimit:10;stroke-dasharray:none;stroke-opacity:1"
     id="path3570"
     transform="translate(439.3848,139.3999)" /><path
     d="m 0,0 c 68.969,0 183.412,112.886 183.412,116.531 0,0.031 -0.009,0.054 -0.027,0.069 0.018,0.015 0.027,0.038 0.027,0.069 C 183.412,120.314 68.969,233.2 0,233.2 c -25.313,0 -57.615,-15.206 -57.615,-56.6 0,-20.707 16.347,-44.822 36.698,-60 C -41.268,101.422 -57.615,77.308 -57.615,56.6 -57.615,15.206 -25.313,0 0,0 Z"
     style="fill:none;stroke:#ffffff;stroke-width:28.4444;stroke-linecap:round;stroke-linejoin:round;stroke-miterlimit:10;stroke-dasharray:none;stroke-opacity:1"
     id="path3574"
     transform="translate(72.615197,139.3999)" /><path
     d="m 0,0 c 0,68.969 112.886,183.413 116.531,183.413 0.031,0 0.054,-0.009 0.069,-0.028 0.014,0.019 0.038,0.028 0.068,0.028 3.645,0 116.531,-114.444 116.531,-183.413 0,-25.313 -15.206,-57.615 -56.599,-57.615 -20.707,0 -44.823,16.348 -60,36.698 -15.178,-20.35 -39.293,-36.698 -60,-36.698 C 15.206,-57.615 0,-25.313 0,0 Z"
     style="fill:none;stroke:#ffffff;stroke-width:28.4444;stroke-linecap:round;stroke-linejoin:round;stroke-miterlimit:10;stroke-dasharray:none;stroke-opacity:1"
     id="path3578"
     transform="translate(139.4004,72.614702)" /><path
     d="m 0,0 c 0,-68.969 112.886,-183.413 116.531,-183.413 0.031,0 0.054,0.009 0.069,0.028 0.014,-0.019 0.038,-0.028 0.068,-0.028 3.645,0 116.531,114.444 116.531,183.413 0,25.313 -15.206,57.615 -56.599,57.615 -20.707,0 -44.823,-16.348 -60,-36.698 -15.178,20.35 -39.293,36.698 -60,36.698 C 15.206,57.615 0,25.313 0,0 Z"
     style="fill:none;stroke:#ffffff;stroke-width:28.4444;stroke-linecap:round;stroke-linejoin:round;stroke-miterlimit:10;stroke-dasharray:none;stroke-opacity:1"
     id="path3582"
     inkscape:label="path3582"
     transform="translate(139.4004,439.3853)" /></g><g
   id="g420"
   transform="matrix(1.6464499,0,0,-1.6464499,90.763449,933.2363)"
   style="display:none;fill:none;fill-opacity:1;stroke:#ffffff;stroke-width:30.3684;stroke-linecap:round;stroke-linejoin:round;stroke-dasharray:none;stroke-opacity:1"
   inkscape:label="s_str"><g
     id="g422"
     transform="translate(363.4111,320.9849)"
     style="fill:none;fill-opacity:1;stroke:#ffffff;stroke-width:30.3684;stroke-linecap:round;stroke-linejoin:round;stroke-dasharray:none;stroke-opacity:1"><path
       d="M 0,0 -172.706,-172.706"
       style="fill:none;fill-opacity:1;stroke:#ffffff;stroke-width:30.3684;stroke-linecap:round;stroke-linejoin:round;stroke-miterlimit:10;stroke-dasharray:none;stroke-opacity:1"
       id="path424" /></g><g
     id="g426"
     style="fill:none;fill-opacity:1;stroke:#ffffff;stroke-width:30.3684;stroke-linecap:round;stroke-linejoin:round;stroke-dasharray:none;stroke-opacity:1"><g
       id="g428"
       clip-path="url(#clipPath432)"
       style="fill:none;fill-opacity:1;stroke:#ffffff;stroke-width:30.3684;stroke-linecap:round;stroke-linejoin:round;stroke-dasharray:none;stroke-opacity:1"><g
         id="g434"
         transform="translate(105.853,63.4265)"
         style="fill:none;fill-opacity:1;stroke:#ffffff;stroke-width:30.3684;stroke-linecap:round;stroke-linejoin:round;stroke-dasharray:none;stroke-opacity:1"><path
           d="M 0,0 -42.427,-42.427 -84.853,0 -42.427,42.426"
           style="fill:none;fill-opacity:1;stroke:#ffffff;stroke-width:30.3684;stroke-linecap:round;stroke-linejoin:round;stroke-miterlimit:10;stroke-dasharray:none;stroke-opacity:1"
           id="path436" /></g></g></g><g
     id="g438"
     transform="translate(148.2793,190.7056)"
     style="fill:none;fill-opacity:1;stroke:#ffffff;stroke-width:30.3684;stroke-linecap:round;stroke-linejoin:round;stroke-dasharray:none;stroke-opacity:1"><path
       d="M 0,0 172.706,172.706"
       style="fill:none;fill-opacity:1;stroke:#ffffff;stroke-width:30.3684;stroke-linecap:round;stroke-linejoin:round;stroke-miterlimit:10;stroke-dasharray:none;stroke-opacity:1"
       id="path440" /></g><g
     id="g442"
     style="fill:none;fill-opacity:1;stroke:#ffffff;stroke-width:30.3684;stroke-linecap:round;stroke-linejoin:round;stroke-dasharray:none;stroke-opacity:1"><g
       id="g444"
       clip-path="url(#clipPath448)"
       style="fill:none;fill-opacity:1;stroke:#ffffff;stroke-width:30.3684;stroke-linecap:round;stroke-linejoin:round;stroke-dasharray:none;stroke-opacity:1"><g
         id="g450"
         transform="translate(405.8379,448.2642)"
         style="fill:none;fill-opacity:1;stroke:#ffffff;stroke-width:30.3684;stroke-linecap:round;stroke-linejoin:round;stroke-dasharray:none;stroke-opacity:1"><path
           d="M 0,0 42.426,42.426 84.853,0 42.426,-42.427"
           style="fill:none;fill-opacity:1;stroke:#ffffff;stroke-width:30.3684;stroke-linecap:round;stroke-linejoin:round;stroke-miterlimit:10;stroke-dasharray:none;stroke-opacity:1"
           id="path452" /></g><g
         id="g454"
         transform="translate(448.2642,320.9849)"
         style="fill:none;fill-opacity:1;stroke:#ffffff;stroke-width:30.3684;stroke-linecap:round;stroke-linejoin:round;stroke-dasharray:none;stroke-opacity:1"><path
           d="M 0,0 -127.279,127.279 -84.853,169.706 42.426,42.427 Z"
           style="fill:none;fill-opacity:1;stroke:#ffffff;stroke-width:30.3684;stroke-linecap:round;stroke-linejoin:round;stroke-miterlimit:10;stroke-dasharray:none;stroke-opacity:1"
           id="path456" /></g><g
         id="g458"
         transform="translate(148.2793,21)"
         style="fill:none;fill-opacity:1;stroke:#ffffff;stroke-width:30.3684;stroke-linecap:round;stroke-linejoin:round;stroke-dasharray:none;stroke-opacity:1"><path
           d="M 0,0 -127.279,127.279 -84.853,169.706 42.426,42.427 Z"
           style="fill:none;fill-opacity:1;stroke:#ffffff;stroke-width:30.3684;stroke-linecap:round;stroke-linejoin:round;stroke-miterlimit:10;stroke-dasharray:none;stroke-opacity:1"
           id="path460" /></g><g
         id="g462"
         transform="translate(448.2642,236.1321)"
         style="fill:none;fill-opacity:1;stroke:#ffffff;stroke-width:30.3684;stroke-linecap:round;stroke-linejoin:round;stroke-dasharray:none;stroke-opacity:1"><path
           d="m 0,0 -212.132,212.132 42.426,42.426 L 42.426,42.426 Z"
           style="fill:none;fill-opacity:1;stroke:#ffffff;stroke-width:30.3684;stroke-linecap:round;stroke-linejoin:round;stroke-miterlimit:10;stroke-dasharray:none;stroke-opacity:1"
           id="path464" /></g><g
         id="g466"
         transform="translate(233.1318,21)"
         style="fill:none;fill-opacity:1;stroke:#ffffff;stroke-width:30.3684;stroke-linecap:round;stroke-linejoin:round;stroke-dasharray:none;stroke-opacity:1"><path
           d="m 0,0 -212.132,212.132 42.426,42.426 L 42.427,42.427 Z"
           style="fill:none;fill-opacity:1;stroke:#ffffff;stroke-width:30.3684;stroke-linecap:round;stroke-linejoin:round;stroke-miterlimit:10;stroke-dasharray:none;stroke-opacity:1"
           id="path468" /></g></g></g></g><g
   id="g1249"
   clip-path="url(#clipPath1253)"
   transform="matrix(1.8811652,0,0,-1.8811652,28.604299,926.54245)"
   style="display:none;stroke:#ffffff;stroke-width:26.5793;stroke-dasharray:none;stroke-opacity:1"
   inkscape:label="s_int"><path
     d="m 0,0 v -36.966 l -40.771,-26.223 -40.77,26.223 V 0"
     style="fill:none;stroke:#ffffff;stroke-width:26.5793;stroke-linecap:butt;stroke-linejoin:miter;stroke-miterlimit:10;stroke-dasharray:none;stroke-opacity:1"
     id="path1273"
     transform="translate(297.7366,278.0253)" /><path
     d="M 0,0 V 75.359"
     style="fill:none;stroke:#ffffff;stroke-width:26.5793;stroke-linecap:butt;stroke-linejoin:miter;stroke-miterlimit:10;stroke-dasharray:none;stroke-opacity:1"
     id="path1269"
     inkscape:label="path1269"
     transform="translate(256.9659,139.4777)" /><path
     d="m 0,0 v -17.58 c 0,-22.077 -17.897,-39.974 -39.975,-39.974 v 0 c -22.077,0 -39.974,17.897 -39.974,39.974 V 0"
     style="fill:none;stroke:#ffffff;stroke-width:26.5793;stroke-linecap:butt;stroke-linejoin:miter;stroke-miterlimit:10;stroke-dasharray:none;stroke-opacity:1"
     id="path1265"
     transform="translate(296.9406,72.627602)" /><path
     d="M 0,0 H 141.105"
     style="fill:none;stroke:#ffffff;stroke-width:26.5793;stroke-linecap:butt;stroke-linejoin:miter;stroke-miterlimit:10;stroke-dasharray:none;stroke-opacity:1"
     id="path1261"
     transform="translate(186.4132,139.4777)" /><path
     d="M 0,0 C 0,75.557 -61.517,136.746 -137.198,136.213 -211.251,135.691 -271.764,75.3 -272.427,1.248 c -0.358,-39.962 16.494,-75.993 43.593,-101.132 13.966,-12.956 22.065,-31.027 22.065,-50.078 v -66.85 h 141.105 v 67.034 c 0,18.847 7.892,36.827 21.749,49.602 C -16.914,-75.286 0,-39.618 0,0 Z"
     style="fill:none;stroke:#ffffff;stroke-width:26.5793;stroke-linecap:butt;stroke-linejoin:miter;stroke-miterlimit:10;stroke-dasharray:none;stroke-opacity:1"
     id="path1257"
     transform="translate(393.1824,289.4394)" /></g><g
   id="g406"
   clip-path="url(#clipPath410)"
   transform="matrix(1.6354429,0,0,-1.6354429,93.326945,930.67338)"
   style="display:none;stroke:#ffffff;stroke-width:30.5728;stroke-dasharray:none;stroke-opacity:1"
   inkscape:label="s_per"><path
     d="m 0,0 c 0,-66.55 -53.95,-120.5 -120.5,-120.5 -66.55,0 -120.5,53.95 -120.5,120.5 0,66.55 53.95,120.5 120.5,120.5 C -53.95,120.5 0,66.55 0,0 Z"
     style="fill:none;stroke:#ffffff;stroke-width:30.5728;stroke-linecap:round;stroke-linejoin:round;stroke-miterlimit:10;stroke-dasharray:none;stroke-opacity:1"
     id="path414"
     transform="translate(376.5,256)" /><path
     d="M 0,0 C 0,0 -105.683,-120.5 -236.049,-120.5 -366.415,-120.5 -472.098,0 -472.098,0 c 0,0 105.683,120.5 236.049,120.5 C -105.683,120.5 0,0 0,0 Z"
     style="fill:none;stroke:#ffffff;stroke-width:30.5728;stroke-linecap:round;stroke-linejoin:round;stroke-miterlimit:10;stroke-dasharray:none;stroke-opacity:1"
     id="path418"
     transform="translate(492.0488,256)" /><path
     d="m 0,0 c 0,-24.957 -20.231,-45.188 -45.188,-45.188 -24.956,0 -45.187,20.231 -45.187,45.188 0,24.957 20.231,45.188 45.187,45.188 C -20.231,45.188 0,24.957 0,0 Z"
     style="fill:none;stroke:#ffffff;stroke-width:30.5728;stroke-linecap:round;stroke-linejoin:round;stroke-miterlimit:10;stroke-dasharray:none;stroke-opacity:1"
     id="path422"
     transform="translate(301.1875,256)" /></g><g
   id="g5"
   transform="matrix(1.6031606,0,0,1.6031606,101.46109,99.359891)"
   style="display:none;stroke:#ffffff;stroke-width:31.1884;stroke-dasharray:none;stroke-opacity:1"
   inkscape:label="s_agl">
	<polyline
   style="fill:none;stroke:#ffffff;stroke-width:31.1884;stroke-miterlimit:10;stroke-dasharray:none;stroke-opacity:1"
   points="497.053,434.669 316.768,434.796 &#10;  36.585,154.644  "
   id="polyline1" />
	
		<line
   style="fill:none;stroke:#ffffff;stroke-width:31.1884;stroke-miterlimit:10;stroke-dasharray:none;stroke-opacity:1"
   x1="346.88699"
   y1="234.619"
   x2="280.328"
   y2="234.619"
   id="line1" />
	
		<line
   style="fill:none;stroke:#ffffff;stroke-width:31.1884;stroke-miterlimit:10;stroke-dasharray:none;stroke-opacity:1"
   x1="359.104"
   y1="295.444"
   x2="292.31601"
   y2="295.444"
   id="line2" />
	<path
   style="fill:none;stroke:#ffffff;stroke-width:31.1884;stroke-miterlimit:10;stroke-dasharray:none;stroke-opacity:1"
   d="m 367.642,337.952 h 38.468 c 50.227,0 90.943,40.717 90.943,90.943 v 14.535 c 0,29.645 -24.032,53.676 -53.676,53.676 H 291.558 L 30.776,236.354 c -20.961,-20.959 -20.961,-54.942 0,-75.901 L 170.031,21.212 200.499,51.677 v 0 c -1.238,28.644 9.6,56.493 29.875,76.766 l 5.68,5.679 c 18.599,18.597 48.752,18.597 67.351,0 v 0 l 29.152,29.149 z"
   id="path2-0" />
	
	
		
	
		
</g><g
   id="g648"
   transform="matrix(2.1392319,0,0,-2.1392319,94.84978,1197.373)"
   style="display:none;stroke:#ffffff;stroke-width:23.3729;stroke-dasharray:none;stroke-opacity:1"
   inkscape:label="s_chr"><path
     d="M 0,0 H 210"
     style="fill:none;stroke:#ffffff;stroke-width:23.3729;stroke-linecap:round;stroke-linejoin:round;stroke-miterlimit:10;stroke-dasharray:none;stroke-opacity:1"
     id="path668"
     transform="translate(90.000002,407)" /><path
     d="M 0,0 H 210"
     style="fill:none;stroke:#ffffff;stroke-width:23.3729;stroke-linecap:round;stroke-linejoin:round;stroke-miterlimit:10;stroke-dasharray:none;stroke-opacity:1"
     id="path672"
     transform="translate(90.000002,347)" /><path
     d="M 0,0 H 210"
     style="fill:none;stroke:#ffffff;stroke-width:23.3729;stroke-linecap:round;stroke-linejoin:round;stroke-miterlimit:10;stroke-dasharray:none;stroke-opacity:1"
     id="path676"
     transform="translate(90.000002,287)" /><path
     d="M 0,0 -90,-53.235 V 0 h -60 V 300 H 210 V 0 Z"
     style="fill:none;stroke:#ffffff;stroke-width:23.3729;stroke-linecap:round;stroke-linejoin:round;stroke-miterlimit:10;stroke-dasharray:none;stroke-opacity:1"
     id="path660"
     transform="translate(165,197)" /></g><g
   id="g1"
   inkscape:label="s_end"
   transform="matrix(1.171875,0,0,1.171875,-81.939396,66.208747)"
   style="display:none"><path
     d="m 685.08695,349.83187 -68.876,-152.908 L 504.86562,427.46253 403.30429,259.34654 356.44162,349.83187 H 251.02829 c -14.34933,-25.08 -21.09866,-47.93867 -21.09866,-70.23466 0,-80.18534 65.236,-145.42134 145.42133,-145.42134 45.66133,0 87.792,20.85467 115.58799,57.21467 l 15.88934,20.78533 15.88933,-20.78533 c 27.79467,-36.36 69.92533,-57.21467 115.58666,-57.21467 80.18534,0 145.42133,65.236 145.42133,145.42134 0,22.29599 -6.74933,45.15466 -21.09866,70.23466 z M 303.86963,418.7852 c -9.29467,-10.03866 -17.64134,-19.66533 -25.09734,-28.95333 h 101.99867 l 25.216,-48.688 102.80266,170.16933 106.15867,-219.8 44.28533,98.31867 h 75.64933 c -7.456,9.288 -15.80267,18.91467 -25.09733,28.95333 -83.30534,89.96533 -170.628,167.39333 -202.95867,195.38133 -32.32666,-27.984 -119.63066,-105.392 -202.95732,-195.38133 m 544.29198,-68.95333 h -40.608 c 10.95734,-24.03467 16.172,-47.08 16.172,-70.23466 0,-102.24134 -83.17999,-185.421339 -185.42133,-185.421339 -50.08799,0 -96.83599,19.667999 -131.47599,54.666669 -34.64133,-34.99734 -81.38933,-54.666669 -131.47733,-54.666669 -102.24133,0 -185.42133,83.179999 -185.42133,185.421339 0,23.15599 5.21467,46.19999 16.172,70.23466 h -40.60667 v 40 h 63.484 c 12.144,17.804 27.26,36.38666 45.54133,56.12933 104.28667,112.62666 232.308,220.68 232.308,220.68 0,0 128.05599,-108.092 232.30799,-220.68 18.28,-19.74267 33.396,-38.32533 45.54,-56.12933 h 63.48533 z"
     style="fill:#ffffff;fill-opacity:1;fill-rule:nonzero;stroke:none;stroke-width:1.33333"
     id="path213"
     clip-path="url(#clipPath3)" /></g></svg>
